<svg xmlns="http://www.w3.org/2000/svg" version="1.1" xmlns:xlink="http://www.w3.org/1999/xlink" xmlns:svgjs="http://svgjs.dev/svgjs" width="1000" height="262" viewBox="0 0 1000 262"><g transform="matrix(1,0,0,1,-0.6060606060606233,0.20760984235522528)"><svg viewBox="0 0 396 104" data-background-color="#ffffff" preserveAspectRatio="xMidYMid meet" height="262" width="1000" xmlns="http://www.w3.org/2000/svg" xmlns:xlink="http://www.w3.org/1999/xlink"><g id="tight-bounds" transform="matrix(1,0,0,1,0.2400000000000091,-0.0824100137593291)"><svg viewBox="0 0 395.52 104.16482002751867" height="104.16482002751867" width="395.52"><g><svg viewBox="0 0 576.9224590840104 151.9392802394808" height="104.16482002751867" width="395.52"><g transform="matrix(1,0,0,1,0,44.76869334356501)"><svg viewBox="0 0 395.52 62.401893552350785" height="62.401893552350785" width="395.52"><g id="textblocktransform"><svg viewBox="0 0 395.52 62.401893552350785" height="62.401893552350785" width="395.52" id="textblock"><g><svg viewBox="0 0 395.52 62.401893552350785" height="62.401893552350785" width="395.52"><g transform="matrix(1,0,0,1,0,0)"><svg width="395.52" viewBox="2 -34.85178493576 225.78 34.85178493576" height="62.401893552350785" data-palette-color="#0718c4"><g class="wordmark-text-0" data-fill-palette-color="primary" id="text-0"><path d="M7.85 0L2.2 0Q2 0 2-0.25L2-0.25 2.1-34.55Q2.1-34.8 2.3-34.8L2.3-34.8 7.9-34.8Q8.1-34.8 8.1-34.55L8.1-34.55 8.1-22.7 15.95-34.6Q16.1-34.8 16.3-34.8L16.3-34.8 22.05-34.8Q22.25-34.8 22.15-34.6L22.15-34.6 13.5-20.8 23.2-0.2Q23.3 0 22.95 0L22.95 0 16.85 0Q16.6 0 16.55-0.2L16.55-0.2 9.8-14.9 8.05-12.15 8.05-0.25Q8.05 0 7.85 0L7.85 0ZM31.3 0L25.65 0Q25.45 0 25.45-0.25L25.45-0.25 25.55-34.6Q25.55-34.8 25.75-34.8L25.75-34.8 35.85-34.8Q38.55-34.8 40.82-33.48 43.1-32.15 44.45-29.93 45.8-27.7 45.8-24.9L45.8-24.9Q45.8-23.05 45.25-21.58 44.7-20.1 43.95-19.07 43.2-18.05 42.6-17.55L42.6-17.55Q45.3-14.55 45.3-10.5L45.3-10.5 45.35-0.25Q45.35 0 45.1 0L45.1 0 39.45 0Q39.25 0 39.25-0.15L39.25-0.15 39.25-10.5Q39.25-12.3 37.97-13.63 36.7-14.95 34.85-14.95L34.85-14.95 31.55-14.95 31.5-0.25Q31.5 0 31.3 0L31.3 0ZM31.55-28.8L31.55-20.95 35.85-20.95Q37.4-20.95 38.6-22.1 39.8-23.25 39.8-24.9L39.8-24.9Q39.8-26.5 38.62-27.65 37.45-28.8 35.85-28.8L35.85-28.8 31.55-28.8ZM65.9 0L49.75 0Q49.55 0 49.55-0.25L49.55-0.25 49.59-34.6Q49.59-34.8 49.8-34.8L49.8-34.8 65.84-34.8Q66.05-34.8 66.05-34.55L66.05-34.55 66.05-28.95Q66.05-28.75 65.84-28.75L65.84-28.75 55.59-28.75 55.59-20.95 65.84-20.95Q66.05-20.95 66.05-20.75L66.05-20.75 66.09-15.1Q66.09-14.9 65.9-14.9L65.9-14.9 55.59-14.9 55.59-6.15 65.9-6.15Q66.09-6.15 66.09-5.9L66.09-5.9 66.09-0.2Q66.09 0 65.9 0L65.9 0ZM79.74-0.05L70.79 0Q70.54 0 70.54-0.25L70.54-0.25 70.64-34.6Q70.64-34.8 70.84-34.8L70.84-34.8 80.19-34.85Q82.94-34.9 85.22-33.55 87.49-32.2 88.84-29.93 90.19-27.65 90.19-24.9L90.19-24.9 90.19-10.55Q90.19-7.65 88.79-5.28 87.39-2.9 85.04-1.5 82.69-0.1 79.74-0.05L79.74-0.05ZM76.69-28.8L76.64-6.15 79.74-6.15Q81.59-6.15 82.87-7.45 84.14-8.75 84.14-10.55L84.14-10.55 84.14-24.95Q84.14-26.55 82.97-27.73 81.79-28.9 80.19-28.85L80.19-28.85 76.69-28.8ZM100.04 0L94.39 0Q94.14 0 94.14-0.25L94.14-0.25 94.19-34.6Q94.19-34.8 94.39-34.8L94.39-34.8 99.99-34.8Q100.19-34.8 100.19-34.6L100.19-34.6 100.24-0.25Q100.24 0 100.04 0L100.04 0ZM115.29 0L109.64 0Q109.44 0 109.44-0.25L109.44-0.25 109.44-28.75 102.94-28.75Q102.69-28.75 102.69-29L102.69-29 102.74-34.6Q102.74-34.8 102.94-34.8L102.94-34.8 121.94-34.8Q122.19-34.8 122.19-34.6L122.19-34.6 122.19-29Q122.19-28.75 121.99-28.75L121.99-28.75 115.44-28.75 115.49-0.25Q115.49 0 115.29 0L115.29 0ZM135.29 0L129.64 0Q129.44 0 129.44-0.25L129.44-0.25 129.44-28.75 122.94-28.75Q122.69-28.75 122.69-29L122.69-29 122.74-34.6Q122.74-34.8 122.94-34.8L122.94-34.8 141.94-34.8Q142.19-34.8 142.19-34.6L142.19-34.6 142.19-29Q142.19-28.75 141.99-28.75L141.99-28.75 135.44-28.75 135.49-0.25Q135.49 0 135.29 0L135.29 0ZM160.98 0L144.83 0Q144.63 0 144.63-0.25L144.63-0.25 144.68-34.6Q144.68-34.8 144.88-34.8L144.88-34.8 160.93-34.8Q161.13-34.8 161.13-34.55L161.13-34.55 161.13-28.95Q161.13-28.75 160.93-28.75L160.93-28.75 150.68-28.75 150.68-20.95 160.93-20.95Q161.13-20.95 161.13-20.75L161.13-20.75 161.18-15.1Q161.18-14.9 160.98-14.9L160.98-14.9 150.68-14.9 150.68-6.15 160.98-6.15Q161.18-6.15 161.18-5.9L161.18-5.9 161.18-0.2Q161.18 0 160.98 0L160.98 0ZM171.48 0L165.88 0Q165.63 0 165.63-0.25L165.63-0.25 165.73-34.6Q165.73-34.8 165.93-34.8L165.93-34.8 175.53-34.8Q180.13-34.8 182.81-32 185.48-29.2 185.48-24.4L185.48-24.4Q185.48-20.85 184.08-18.25 182.68-15.65 180.43-14.25 178.18-12.85 175.53-12.85L175.53-12.85 171.73-12.85 171.73-0.25Q171.73 0 171.48 0L171.48 0ZM171.73-28.8L171.73-18.9 175.53-18.9Q177.13-18.9 178.31-20.43 179.48-21.95 179.48-24.4L179.48-24.4Q179.48-26.35 178.43-27.6 177.38-28.85 175.53-28.85L175.53-28.85 171.73-28.8ZM187.18-0.25L187.18-0.25 193.38-34.6Q193.43-34.8 193.63-34.8L193.63-34.8 200.88-34.8Q201.08-34.8 201.13-34.6L201.13-34.6 207.08-0.25Q207.13 0 206.88 0L206.88 0 201.33 0Q201.13 0 201.08-0.25L201.08-0.25 200.53-3.9 193.73-3.9 193.18-0.25Q193.13 0 192.93 0L192.93 0 187.38 0Q187.18 0 187.18-0.25ZM196.98-23.3L194.73-9.25 199.53-9.25 197.48-23.3 197.18-25.15 196.98-23.3ZM220.88 0L215.23 0Q215.03 0 215.03-0.25L215.03-0.25 215.03-28.75 208.53-28.75Q208.28-28.75 208.28-29L208.28-29 208.33-34.6Q208.33-34.8 208.53-34.8L208.53-34.8 227.53-34.8Q227.78-34.8 227.78-34.6L227.78-34.6 227.78-29Q227.78-28.75 227.58-28.75L227.58-28.75 221.03-28.75 221.08-0.25Q221.08 0 220.88 0L220.88 0Z" fill="#ffffff" data-fill-palette-color="primary"></path></g></svg></g></svg></g></svg></g></svg></g><g transform="matrix(1,0,0,1,424.9831788445295,0)"><svg viewBox="0 0 151.9392802394808 151.9392802394808" height="151.9392802394808" width="151.9392802394808"><g><svg></svg></g><g id="icon-0"><svg viewBox="0 0 151.9392802394808 151.9392802394808" height="151.9392802394808" width="151.9392802394808"><g><path d="M0 75.97c0-41.957 34.013-75.97 75.97-75.97 41.957 0 75.97 34.013 75.969 75.97 0 41.957-34.013 75.97-75.969 75.969-41.957 0-75.97-34.013-75.97-75.969zM75.97 146.312c38.849 0 70.342-31.493 70.342-70.342 0-38.849-31.493-70.342-70.342-70.343-38.849 0-70.342 31.493-70.343 70.343 0 38.849 31.493 70.342 70.343 70.342z" data-fill-palette-color="accent" fill="#ffffff" stroke="transparent"></path></g><g transform="matrix(1,0,0,1,32.00614920956769,43.42132022611536)"><svg viewBox="0 0 87.92698182034543 65.09663978725008" height="65.09663978725008" width="87.92698182034543"><g><svg xmlns="http://www.w3.org/2000/svg" xmlns:xlink="http://www.w3.org/1999/xlink" version="1.1" x="0" y="0" viewBox="0.0008314839179261527 12.982999999999999 100.00015546646183 74.035" enable-background="new 0 0 100 100" xml:space="preserve" width="87.92698182034543" height="65.09663978725008" class="icon-z$-0" data-fill-palette-color="accent" id="z$-0"><g fill="#0718c4" data-fill-palette-color="accent"><path d="M90.737 27.344L21.37 13.219c-0.756-0.154-1.532-0.236-2.299-0.236-5.48 0-10.259 3.893-11.343 9.264L2.221 49.293l-1.988 9.73c-0.61 3.018-0.01 6.1 1.706 8.68 1.704 2.59 4.313 4.352 7.33 4.961l69.368 14.127c0.757 0.154 1.531 0.227 2.298 0.227 5.48 0 10.249-3.893 11.345-9.256l0.245-1.221 0.521-2.535 1.222-5.982v-0.045l5.498-27.002C101.042 34.73 96.993 28.611 90.737 27.344zM90.044 77.307c-0.875 4.303-4.705 7.432-9.109 7.432-0.61 0-1.231-0.064-1.843-0.182L9.725 70.43c-2.425-0.49-4.513-1.904-5.89-3.982-1.368-2.07-1.861-4.551-1.368-6.969l0.018-0.1 2.181 0.438 8.607 1.76c0.027 0 0.056 0.01 0.082 0.01l8.544 1.742 8.609 1.75 8.607 1.76c0.027 0 0.056 0.01 0.082 0.01l8.545 1.742 8.608 1.75 8.581 1.75c0.035 0.01 0.072 0.01 0.108 0.018l8.545 1.742 8.617 1.752 7.86 1.604L90.044 77.307zM90.719 74.006l-0.2 0.967-5.781-1.176 5.499-5.428 1.559 0.32L90.719 74.006zM18.625 53.789l-5.499 5.426-5.927-1.203 5.489-5.428L18.625 53.789zM27.234 55.549l-5.49 5.426-5.918-1.213 5.489-5.426L27.234 55.549zM35.851 57.299l-5.489 5.428-5.927-1.205 5.489-5.426h0.009L35.851 57.299zM44.468 59.051l-5.489 5.426h-0.01l-5.927-1.203 5.499-5.426L44.468 59.051zM53.077 60.811l-5.49 5.426-5.918-1.213 5.48-5.426L53.077 60.811zM61.693 62.561l-5.489 5.426-5.927-1.203 5.498-5.426L61.693 62.561zM70.312 64.312l-5.49 5.426-5.937-1.205 5.5-5.424L70.312 64.312zM78.929 66.072l-5.498 5.426-5.919-1.213 5.489-5.426L78.929 66.072zM87.536 67.822l-5.489 5.426-5.927-1.203 5.499-5.426L87.536 67.822zM4.51 57.463l-1.561-0.318 1.277-6.283 5.781 1.176L4.51 57.463zM97.531 40.531l-5.28 25.924-2.097-0.43h-0.009l-0.11-0.018C90.018 66 90.008 66 89.999 66l-8.517-1.742c-0.028 0-0.056-0.01-0.092-0.01l-8.472-1.732c-0.018 0-0.036-0.008-0.046-0.008l-0.063-0.01c-0.009 0-0.019-0.01-0.027-0.01l-8.471-1.723c0 0-0.01 0-0.019 0-0.027-0.01-0.064-0.018-0.101-0.018-0.009-0.01-0.018-0.01-0.027-0.01l-8.48-1.725c-0.027-0.008-0.064-0.018-0.091-0.018-0.019-0.01-0.028-0.01-0.047-0.01l-8.471-1.732c-0.009 0-0.018 0-0.027-0.01-0.036 0-0.063-0.008-0.101-0.018-0.009 0-0.009 0-0.018 0l-8.463-1.723c0 0-0.009 0-0.019 0l-0.1-0.02c-0.009-0.01-0.018-0.01-0.027-0.01l-8.508-1.73h-0.01c-0.027-0.01-0.045-0.01-0.072-0.01-0.01-0.01-0.019-0.01-0.028-0.01l-8.543-1.742-8.545-1.74c-0.036-0.01-0.083-0.02-0.118-0.027l-7.815-1.588 5.28-25.924c0.875-4.314 4.705-7.441 9.108-7.441 0.612 0 1.231 0.064 1.843 0.191L90.29 29.578C95.306 30.6 98.552 35.506 97.531 40.531z" fill="#ffffff" data-fill-palette-color="accent"></path><path d="M20.859 20.141c-0.365-0.074-0.739-0.119-1.104-0.119-2.607 0-4.87 1.859-5.389 4.414-0.292 1.441-0.01 2.908 0.802 4.131 0.812 1.23 2.052 2.07 3.493 2.361 0.365 0.072 0.739 0.109 1.104 0.109 2.608 0 4.869-1.852 5.389-4.404 0.292-1.439 0.009-2.908-0.802-4.141C23.54 21.271 22.301 20.432 20.859 20.141zM22.92 26.178c-0.346 1.703-2.069 2.863-3.802 2.516-0.848-0.174-1.569-0.666-2.043-1.385-0.482-0.713-0.647-1.578-0.474-2.418 0.301-1.496 1.631-2.588 3.154-2.588 0.219 0 0.438 0.025 0.647 0.072 0.849 0.172 1.578 0.656 2.052 1.377C22.93 24.471 23.093 25.328 22.92 26.178z" fill="#ffffff" data-fill-palette-color="accent"></path></g></svg></g></svg></g></svg></g></svg></g></svg></g><defs></defs></svg><rect width="395.52" height="104.16482002751867" fill="none" stroke="none" visibility="hidden"></rect></g></svg></g></svg>